<svg preserveAspectRatio="none" width="100%" height="100%" overflow="visible" style="display: block;" viewBox="0 0 901 901" fill="none" xmlns="http://www.w3.org/2000/svg">
<g id="Ellipse 35" filter="url(#filter0_d_0_11)">
<mask id="path-1-inside-1_0_11" fill="white">
<path d="M259.044 46.3457C154.261 96.3548 73.204 185.377 33.2073 294.376C-6.78928 403.374 -2.55047 523.696 45.0173 629.61C92.5851 735.523 179.706 818.621 287.748 861.133C395.791 903.644 516.178 902.195 623.166 857.094C730.153 811.993 815.247 726.821 860.251 619.792C905.254 512.764 906.594 392.375 863.984 284.371C821.375 176.368 738.197 89.3228 632.24 41.8515C526.283 -5.61971 405.958 -9.74889 296.996 30.347L327.99 114.575C414.951 82.5745 510.982 85.8699 595.545 123.756C680.108 161.643 746.491 231.112 780.498 317.309C814.504 403.505 813.435 499.586 777.518 585.005C741.601 670.423 673.688 738.398 588.303 774.392C502.917 810.387 406.837 811.544 320.609 777.616C234.382 743.688 164.852 677.369 126.889 592.84C88.9252 508.311 85.5422 412.284 117.463 325.293C149.384 238.303 214.075 167.255 297.701 127.343L259.044 46.3457Z"/>
</mask>
<path d="M259.044 46.3457C154.261 96.3548 73.204 185.377 33.2073 294.376C-6.78928 403.374 -2.55047 523.696 45.0173 629.61C92.5851 735.523 179.706 818.621 287.748 861.133C395.791 903.644 516.178 902.195 623.166 857.094C730.153 811.993 815.247 726.821 860.251 619.792C905.254 512.764 906.594 392.375 863.984 284.371C821.375 176.368 738.197 89.3228 632.24 41.8515C526.283 -5.61971 405.958 -9.74889 296.996 30.347L327.99 114.575C414.951 82.5745 510.982 85.8699 595.545 123.756C680.108 161.643 746.491 231.112 780.498 317.309C814.504 403.505 813.435 499.586 777.518 585.005C741.601 670.423 673.688 738.398 588.303 774.392C502.917 810.387 406.837 811.544 320.609 777.616C234.382 743.688 164.852 677.369 126.889 592.84C88.9252 508.311 85.5422 412.284 117.463 325.293C149.384 238.303 214.075 167.255 297.701 127.343L259.044 46.3457Z" fill="url(#paint0_linear_0_11)"/>
<path d="M259.044 46.3457C154.261 96.3548 73.204 185.377 33.2073 294.376C-6.78928 403.374 -2.55047 523.696 45.0173 629.61C92.5851 735.523 179.706 818.621 287.748 861.133C395.791 903.644 516.178 902.195 623.166 857.094C730.153 811.993 815.247 726.821 860.251 619.792C905.254 512.764 906.594 392.375 863.984 284.371C821.375 176.368 738.197 89.3228 632.24 41.8515C526.283 -5.61971 405.958 -9.74889 296.996 30.347L327.99 114.575C414.951 82.5745 510.982 85.8699 595.545 123.756C680.108 161.643 746.491 231.112 780.498 317.309C814.504 403.505 813.435 499.586 777.518 585.005C741.601 670.423 673.688 738.398 588.303 774.392C502.917 810.387 406.837 811.544 320.609 777.616C234.382 743.688 164.852 677.369 126.889 592.84C88.9252 508.311 85.5422 412.284 117.463 325.293C149.384 238.303 214.075 167.255 297.701 127.343L259.044 46.3457Z" stroke="var(--stroke-0, #1C4122)" stroke-width="2" mask="url(#path-1-inside-1_0_11)"/>
</g>
<defs>
<filter id="filter0_d_0_11" x="2.33333e-07" y="5.52391e-08" width="901" height="901" filterUnits="userSpaceOnUse" color-interpolation-filters="sRGB">
<feFlood flood-opacity="0" result="BackgroundImageFix"/>
<feColorMatrix in="SourceAlpha" type="matrix" values="0 0 0 0 0 0 0 0 0 0 0 0 0 0 0 0 0 0 127 0" result="hardAlpha"/>
<feOffset dy="3"/>
<feGaussianBlur stdDeviation="3"/>
<feComposite in2="hardAlpha" operator="out"/>
<feColorMatrix type="matrix" values="0 0 0 0 0 0 0 0 0 0 0 0 0 0 0 0 0 0 0.1 0"/>
<feBlend mode="normal" in2="BackgroundImageFix" result="effect1_dropShadow_0_11"/>
<feBlend mode="normal" in="SourceGraphic" in2="effect1_dropShadow_0_11" result="shape"/>
</filter>
<linearGradient id="paint0_linear_0_11" x1="450.5" y1="3.00009" x2="450.5" y2="892" gradientUnits="userSpaceOnUse">
<stop stop-color="#48A757"/>
<stop offset="0.950164" stop-color="#1C4122"/>
</linearGradient>
</defs>
</svg>
