<svg preserveAspectRatio="none" width="100%" height="100%" overflow="visible" style="display: block;" viewBox="0 0 857.791 840.833" fill="none" xmlns="http://www.w3.org/2000/svg">
<g id="Ellipse 36" filter="url(#filter0_d_0_10)">
<mask id="path-1-inside-1_0_10" fill="white">
<path d="M273.273 22.278C263.758 2.34086 239.769 -6.26077 220.767 5.00769C169.623 35.338 124.962 75.6964 89.5481 123.798C46.2095 182.664 18.0573 251.309 7.58514 323.653C-2.88703 395.998 4.6441 469.808 29.5114 538.547C54.3787 607.286 95.8146 668.831 150.149 717.73C204.483 766.63 270.038 801.375 341.008 818.888C411.978 836.401 486.171 836.141 557.016 818.131C627.861 800.121 693.171 764.917 747.161 715.637C791.279 675.368 826.725 626.717 851.518 572.671C860.729 552.591 849.656 529.638 828.83 522.269L819.639 519.016C798.813 511.647 776.157 522.687 766.491 542.551C746.922 582.769 719.868 619.035 686.656 649.349C643.568 688.679 591.444 716.774 534.904 731.148C478.363 745.522 419.15 745.729 362.51 731.752C305.87 717.776 253.551 690.046 210.187 651.02C166.824 611.993 133.754 562.875 113.908 508.015C94.0614 453.156 88.0509 394.248 96.4086 336.511C104.766 278.774 127.234 223.989 161.822 177.009C188.482 140.798 221.707 110.085 259.648 86.4016C278.388 74.7035 286.987 51.0137 277.472 31.0765L273.273 22.278Z"/>
</mask>
<path d="M273.273 22.278C263.758 2.34086 239.769 -6.26077 220.767 5.00769C169.623 35.338 124.962 75.6964 89.5481 123.798C46.2095 182.664 18.0573 251.309 7.58514 323.653C-2.88703 395.998 4.6441 469.808 29.5114 538.547C54.3787 607.286 95.8146 668.831 150.149 717.73C204.483 766.63 270.038 801.375 341.008 818.888C411.978 836.401 486.171 836.141 557.016 818.131C627.861 800.121 693.171 764.917 747.161 715.637C791.279 675.368 826.725 626.717 851.518 572.671C860.729 552.591 849.656 529.638 828.83 522.269L819.639 519.016C798.813 511.647 776.157 522.687 766.491 542.551C746.922 582.769 719.868 619.035 686.656 649.349C643.568 688.679 591.444 716.774 534.904 731.148C478.363 745.522 419.15 745.729 362.51 731.752C305.87 717.776 253.551 690.046 210.187 651.02C166.824 611.993 133.754 562.875 113.908 508.015C94.0614 453.156 88.0509 394.248 96.4086 336.511C104.766 278.774 127.234 223.989 161.822 177.009C188.482 140.798 221.707 110.085 259.648 86.4016C278.388 74.7035 286.987 51.0137 277.472 31.0765L273.273 22.278Z" fill="url(#paint0_linear_0_10)"/>
<path d="M273.273 22.278C263.758 2.34086 239.769 -6.26077 220.767 5.00769C169.623 35.338 124.962 75.6964 89.5481 123.798C46.2095 182.664 18.0573 251.309 7.58514 323.653C-2.88703 395.998 4.6441 469.808 29.5114 538.547C54.3787 607.286 95.8146 668.831 150.149 717.73C204.483 766.63 270.038 801.375 341.008 818.888C411.978 836.401 486.171 836.141 557.016 818.131C627.861 800.121 693.171 764.917 747.161 715.637C791.279 675.368 826.725 626.717 851.518 572.671C860.729 552.591 849.656 529.638 828.83 522.269L819.639 519.016C798.813 511.647 776.157 522.687 766.491 542.551C746.922 582.769 719.868 619.035 686.656 649.349C643.568 688.679 591.444 716.774 534.904 731.148C478.363 745.522 419.15 745.729 362.51 731.752C305.87 717.776 253.551 690.046 210.187 651.02C166.824 611.993 133.754 562.875 113.908 508.015C94.0614 453.156 88.0509 394.248 96.4086 336.511C104.766 278.774 127.234 223.989 161.822 177.009C188.482 140.798 221.707 110.085 259.648 86.4016C278.388 74.7035 286.987 51.0137 277.472 31.0765L273.273 22.278Z" stroke="var(--stroke-0, #2E7D32)" stroke-width="2" mask="url(#path-1-inside-1_0_10)"/>
</g>
<defs>
<filter id="filter0_d_0_10" x="2.3625e-08" y="0" width="857.791" height="840.833" filterUnits="userSpaceOnUse" color-interpolation-filters="sRGB">
<feFlood flood-opacity="0" result="BackgroundImageFix"/>
<feColorMatrix in="SourceAlpha" type="matrix" values="0 0 0 0 0 0 0 0 0 0 0 0 0 0 0 0 0 0 127 0" result="hardAlpha"/>
<feOffset dy="6"/>
<feGaussianBlur stdDeviation="1.5"/>
<feComposite in2="hardAlpha" operator="out"/>
<feColorMatrix type="matrix" values="0 0 0 0 0 0 0 0 0 0 0 0 0 0 0 0 0 0 0.1 0"/>
<feBlend mode="normal" in2="BackgroundImageFix" result="effect1_dropShadow_0_10"/>
<feBlend mode="normal" in="SourceGraphic" in2="effect1_dropShadow_0_10" result="shape"/>
</filter>
<linearGradient id="paint0_linear_0_10" x1="706.5" y1="240.333" x2="448" y2="831.833" gradientUnits="userSpaceOnUse">
<stop stop-color="#48A757"/>
<stop offset="1" stop-color="#1C4122"/>
</linearGradient>
</defs>
</svg>
