<svg preserveAspectRatio="none" width="100%" height="100%" overflow="visible" style="display: block;" viewBox="0 0 214.561 618.427" fill="none" xmlns="http://www.w3.org/2000/svg">
<g id="Ellipse 37" filter="url(#filter0_d_0_9)">
<mask id="path-1-inside-1_0_9" fill="white">
<path d="M12.4887 596.834C23.1406 610.952 43.308 613.847 56.6229 602.206C93.2029 570.227 124.348 532.416 148.761 490.24C178.531 438.81 197.686 381.934 205.094 322.973C212.501 264.013 208.012 204.166 191.891 146.97C178.67 100.066 157.846 55.7254 130.315 15.6904C120.293 1.11785 100.036 -1.06643 86.223 9.97799V9.97799C72.4096 21.0224 70.29 41.1059 80.134 55.799C102.417 89.0585 119.349 125.684 130.246 164.346C144.045 213.3 147.888 264.524 141.547 314.989C135.206 365.454 118.811 414.135 93.3315 458.155C73.2088 492.919 47.7425 524.217 17.9241 550.931C4.75135 562.732 1.83685 582.716 12.4887 596.834V596.834Z"/>
</mask>
<path d="M12.4887 596.834C23.1406 610.952 43.308 613.847 56.6229 602.206C93.2029 570.227 124.348 532.416 148.761 490.24C178.531 438.81 197.686 381.934 205.094 322.973C212.501 264.013 208.012 204.166 191.891 146.97C178.67 100.066 157.846 55.7254 130.315 15.6904C120.293 1.11785 100.036 -1.06643 86.223 9.97799V9.97799C72.4096 21.0224 70.29 41.1059 80.134 55.799C102.417 89.0585 119.349 125.684 130.246 164.346C144.045 213.3 147.888 264.524 141.547 314.989C135.206 365.454 118.811 414.135 93.3315 458.155C73.2088 492.919 47.7425 524.217 17.9241 550.931C4.75135 562.732 1.83685 582.716 12.4887 596.834V596.834Z" fill="url(#paint0_linear_0_9)"/>
<path d="M12.4887 596.834C23.1406 610.952 43.308 613.847 56.6229 602.206C93.2029 570.227 124.348 532.416 148.761 490.24C178.531 438.81 197.686 381.934 205.094 322.973C212.501 264.013 208.012 204.166 191.891 146.97C178.67 100.066 157.846 55.7254 130.315 15.6904C120.293 1.11785 100.036 -1.06643 86.223 9.97799V9.97799C72.4096 21.0224 70.29 41.1059 80.134 55.799C102.417 89.0585 119.349 125.684 130.246 164.346C144.045 213.3 147.888 264.524 141.547 314.989C135.206 365.454 118.811 414.135 93.3315 458.155C73.2088 492.919 47.7425 524.217 17.9241 550.931C4.75135 562.732 1.83685 582.716 12.4887 596.834V596.834Z" stroke="url(#paint1_linear_0_9)" stroke-width="2" mask="url(#path-1-inside-1_0_9)"/>
</g>
<defs>
<filter id="filter0_d_0_9" x="0" y="0" width="214.561" height="618.427" filterUnits="userSpaceOnUse" color-interpolation-filters="sRGB">
<feFlood flood-opacity="0" result="BackgroundImageFix"/>
<feColorMatrix in="SourceAlpha" type="matrix" values="0 0 0 0 0 0 0 0 0 0 0 0 0 0 0 0 0 0 127 0" result="hardAlpha"/>
<feOffset dy="3"/>
<feGaussianBlur stdDeviation="3"/>
<feComposite in2="hardAlpha" operator="out"/>
<feColorMatrix type="matrix" values="0 0 0 0 0 0 0 0 0 0 0 0 0 0 0 0 0 0 0.1 0"/>
<feBlend mode="normal" in2="BackgroundImageFix" result="effect1_dropShadow_0_9"/>
<feBlend mode="normal" in="SourceGraphic" in2="effect1_dropShadow_0_9" result="shape"/>
</filter>
<linearGradient id="paint0_linear_0_9" x1="-233.252" y1="-51.1213" x2="-291.313" y2="711.708" gradientUnits="userSpaceOnUse">
<stop stop-color="#48A757"/>
<stop offset="0.950164" stop-color="#1C4122"/>
</linearGradient>
<linearGradient id="paint1_linear_0_9" x1="-235.939" y1="-176.939" x2="-235.939" y2="712.061" gradientUnits="userSpaceOnUse">
<stop stop-color="#1C4122"/>
<stop offset="1" stop-color="#48A757"/>
</linearGradient>
</defs>
</svg>
