<svg preserveAspectRatio="none" width="100%" height="100%" overflow="visible" style="display: block;" viewBox="0 0 400.713 788.665" fill="none" xmlns="http://www.w3.org/2000/svg">
<g id="Ellipse 38" filter="url(#filter0_d_0_8)">
<mask id="path-1-inside-1_0_8" fill="white">
<path d="M6.30054 752.789C8.7054 770.31 24.8942 782.681 42.1972 779.022C117.382 763.119 187.355 727.947 245.126 676.719C310.903 618.391 357.907 541.867 380.194 456.825C402.48 371.783 399.048 282.042 370.332 198.95C345.111 125.973 301.381 61.0037 243.659 10.2712C230.374 -1.40432 210.199 1.43688 199.51 15.527V15.527C188.821 29.6171 191.683 49.6089 204.825 61.4448C252.525 104.406 288.717 158.87 309.799 219.871C334.377 290.99 337.315 367.8 318.24 440.589C299.164 513.378 258.933 578.875 202.633 628.799C154.343 671.621 96.092 701.335 33.4525 715.379C16.1951 719.249 3.89568 735.267 6.30054 752.789V752.789Z"/>
</mask>
<path d="M6.30054 752.789C8.7054 770.31 24.8942 782.681 42.1972 779.022C117.382 763.119 187.355 727.947 245.126 676.719C310.903 618.391 357.907 541.867 380.194 456.825C402.48 371.783 399.048 282.042 370.332 198.95C345.111 125.973 301.381 61.0037 243.659 10.2712C230.374 -1.40432 210.199 1.43688 199.51 15.527V15.527C188.821 29.6171 191.683 49.6089 204.825 61.4448C252.525 104.406 288.717 158.87 309.799 219.871C334.377 290.99 337.315 367.8 318.24 440.589C299.164 513.378 258.933 578.875 202.633 628.799C154.343 671.621 96.092 701.335 33.4525 715.379C16.1951 719.249 3.89568 735.267 6.30054 752.789V752.789Z" fill="url(#paint0_linear_0_8)"/>
<path d="M6.30054 752.789C8.7054 770.31 24.8942 782.681 42.1972 779.022C117.382 763.119 187.355 727.947 245.126 676.719C310.903 618.391 357.907 541.867 380.194 456.825C402.48 371.783 399.048 282.042 370.332 198.95C345.111 125.973 301.381 61.0037 243.659 10.2712C230.374 -1.40432 210.199 1.43688 199.51 15.527V15.527C188.821 29.6171 191.683 49.6089 204.825 61.4448C252.525 104.406 288.717 158.87 309.799 219.871C334.377 290.99 337.315 367.8 318.24 440.589C299.164 513.378 258.933 578.875 202.633 628.799C154.343 671.621 96.092 701.335 33.4525 715.379C16.1951 719.249 3.89568 735.267 6.30054 752.789V752.789Z" stroke="url(#paint1_linear_0_8)" stroke-width="2" mask="url(#path-1-inside-1_0_8)"/>
</g>
<defs>
<filter id="filter0_d_0_8" x="0" y="0" width="400.713" height="788.665" filterUnits="userSpaceOnUse" color-interpolation-filters="sRGB">
<feFlood flood-opacity="0" result="BackgroundImageFix"/>
<feColorMatrix in="SourceAlpha" type="matrix" values="0 0 0 0 0 0 0 0 0 0 0 0 0 0 0 0 0 0 127 0" result="hardAlpha"/>
<feOffset dy="3"/>
<feGaussianBlur stdDeviation="3"/>
<feComposite in2="hardAlpha" operator="out"/>
<feColorMatrix type="matrix" values="0 0 0 0 0 0 0 0 0 0 0 0 0 0 0 0 0 0 0.1 0"/>
<feBlend mode="normal" in2="BackgroundImageFix" result="effect1_dropShadow_0_8"/>
<feBlend mode="normal" in="SourceGraphic" in2="effect1_dropShadow_0_8" result="shape"/>
</filter>
<linearGradient id="paint0_linear_0_8" x1="343.083" y1="105.843" x2="191.315" y2="722.86" gradientUnits="userSpaceOnUse">
<stop stop-color="#2E7D32"/>
<stop offset="0.950164" stop-color="#1C4122"/>
</linearGradient>
<linearGradient id="paint1_linear_0_8" x1="361.859" y1="193.535" x2="11.5959" y2="686.429" gradientUnits="userSpaceOnUse">
<stop stop-color="#1C4122"/>
<stop offset="1" stop-color="#48A757"/>
</linearGradient>
</defs>
</svg>
